<svg xmlns="http://www.w3.org/2000/svg" version="1.1" xmlns:xlink="http://www.w3.org/1999/xlink" xmlns:svgjs="http://svgjs.dev/svgjs" viewBox="0 0 800 800"><defs><symbol id="bbburst-shape-1" viewBox="0 0 194 167"><path d="m97 0 96.129 166.5H.871L97 0Z"></path></symbol><symbol id="bbburst-shape-2" viewBox="0 0 126 115"><path d="m63 0 62.77 43.877-23.976 70.996H24.206L.23 43.877 63 0Z"></path></symbol><symbol id="bbburst-shape-3" viewBox="0 0 131 127"><path d="m66 0 66 63.5L66 127 0 63.5 66 0Z"></path></symbol><symbol id="bbburst-shape-4" viewBox="0 0 149 143"><path d="M71.647 2.781c.898-2.764 4.808-2.764 5.706 0l15.445 47.534a3 3 0 0 0 2.853 2.073h49.98c2.906 0 4.115 3.719 1.764 5.427L106.96 87.193a2.999 2.999 0 0 0-1.09 3.354l15.445 47.534c.898 2.764-2.266 5.062-4.617 3.354l-40.435-29.378a3 3 0 0 0-3.526 0l-40.435 29.378c-2.351 1.708-5.515-.59-4.617-3.354L43.13 90.547a3 3 0 0 0-1.09-3.354L1.605 57.815c-2.35-1.708-1.142-5.427 1.764-5.427h49.98a3 3 0 0 0 2.853-2.073L71.647 2.781Z"></path></symbol><symbol id="bbburst-shape-5" viewBox="0 0 145 145"><circle cx="72.5" cy="72.5" r="72.5"></circle></symbol><symbol id="bbburst-shape-6" viewBox="0 0 133 116"><path d="M59.7487 10.2513c-13.6683-13.66839-35.8291-13.66839-49.4974 0-13.66839 13.6683-13.66839 35.8291 0 49.4974l49.4974-49.4974ZM66.5 66.5 41.7513 91.2487 66.5 115.997l24.7487-24.7483L66.5 66.5Zm56.249-6.7513c13.668-13.6683 13.668-35.8291 0-49.4974-13.669-13.66839-35.8294-13.66839-49.4977 0l49.4977 49.4974Zm-112.4977 0 31.5 31.5 49.4974-49.4974-31.5-31.5-49.4974 49.4974Zm80.9974 31.5 31.5003-31.5-49.4977-49.4974-31.5 31.5 49.4974 49.4974Z"></path></symbol><symbol id="bbburst-shape-7" viewBox="0 0 139 124"><path fill-rule="evenodd" clip-rule="evenodd" d="M70.1641 15.0917C54.6093.764854 37.8293-2.10782 24.4032 2.82615 10.3804 7.97941.763366 21.4591 1.00047 37.0608c.1068 7.0273 2.86132 13.7317 7.0039 20.2001C12.1442 63.7249 17.853 70.2322 24.25 76.9024c3.8209 3.9842 7.8871 8.0312 12.0767 12.201h.0001c10.0335 9.9862 20.7748 20.6766 30.5497 32.8956 1.38 1.725 3.8972 2.005 5.6223.624.6706-.536 1.1228-1.244 1.3439-2.011 9.5768-11.748 20.0328-22.0735 29.8163-31.7351 4.19-4.1373 8.256-8.1528 12.078-12.1062 6.396-6.6176 12.106-13.0752 16.247-19.4911 4.144-6.4196 6.905-13.0811 7.012-20.0691.237-15.5124-9.399-28.8902-23.411-33.99923-13.32-4.85681-29.9542-2.08621-45.4209 11.88043Zm-3.7351 7.4919C52.1278 8.44857 37.6826 6.46918 27.1626 10.3352 16.2859 14.3323 8.8148 24.7824 8.99955 36.9392c.07575 4.9844 2.03755 10.2234 5.74165 16.0072 3.707 5.7881 8.9752 11.8418 15.2827 18.4187 3.5798 3.7328 7.4978 7.6329 11.6 11.7163 9.0476 9.0063 18.9911 18.9046 28.1786 29.8666 9.2999-11.068 19.4036-21.0473 28.5839-30.1144l.0007-.0006c4.1019-4.0508 8.0189-7.9196 11.5979-11.6222 6.307-6.5252 11.573-12.5298 15.278-18.2697 3.703-5.7362 5.658-10.924 5.734-15.8531.184-12.0276-7.267-22.3914-18.153-26.3608-10.71-3.90518-25.4722-1.80041-40.0023 12.867-1.5547 1.5694-4.0874 1.5813-5.6568.0265-.3146-.3116-.5666-.6625-.7559-1.0371Z"></path></symbol><symbol id="bbburst-shape-8" viewBox="0 0 87 168"><path d="m12 12 31.2546 18.0749c16.4102 9.4902 20.014 31.6325 7.4603 45.8369L36.3296 92.1884c-12.5684 14.2206-8.9394 36.3916 7.5068 45.8636L75 156" stroke-width="14" stroke-linecap="round" stroke-linejoin="round"></path></symbol><symbol id="bbburst-shape-9" viewBox="0 0 182 172"><path d="M13.5809 69.845 91 13.5967l77.419 56.2483-29.571 91.012H43.1524L13.5809 69.845Z" stroke-width="22"></path></symbol><symbol id="bbburst-shape-10" viewBox="0 0 145 145"><circle cx="72.5" cy="72.5" r="61.5" fill="none" stroke-width="22"></circle></symbol><symbol id="bbburst-shape-11" viewBox="0 0 194 167"><path d="M10.398 161 97 11l86.603 150H10.397Z" stroke-width="11"></path></symbol><symbol id="bbburst-shape-12" viewBox="0 0 170 151"><path d="M69.3728 54.2122 85 10.0031l15.627 44.2091c1.413 3.9958 5.19 6.6672 9.428 6.6673h49.312l-39.149 26.1447c-3.803 2.5401-5.399 7.3367-3.875 11.6488l15.179 42.94-40.9683-27.36c-3.3621-2.245-7.7453-2.245-11.1074 0l-40.9682 27.36 15.1785-42.94c1.5243-4.3121-.0712-9.1087-3.8746-11.6488L10.6333 60.8795h49.3112c4.2381-.0001 8.0159-2.6715 9.4283-6.6673Z" stroke-width="12"></path></symbol><symbol id="bbburst-shape-13" viewBox="0 0 159 159"><path stroke-width="22" d="M11 11h137v137H11z"></path></symbol><symbol id="bbburst-shape-14" viewBox="0 0 185 109"><path d="M168 16.5C168 58.1975 134.197 92 92.5 92 50.8025 92 17 58.1975 17 16.5" stroke-width="33" stroke-linecap="round"></path></symbol></defs><use xlink:href="#bbburst-shape-5" width="24.396035814797607" opacity="0.3891610151664304" transform="matrix(0.9932638197907486,0.11587486480980812,-0.11587486480980812,0.9932638197907486,659.0870660603008,159.39116186740029)" fill="#9a60ff"></use><use xlink:href="#bbburst-shape-9" width="21.8666715914519" opacity="0.6841588230617458" transform="matrix(0.9474608528318825,0.3198717435959009,-0.3198717435959009,0.9474608528318825,588.1967148197928,-105.99808624833133)" fill="none" stroke="#9a60ff"></use><use xlink:href="#bbburst-shape-9" width="24.446035302489996" opacity="0.5019481315839807" transform="matrix(0.9021776758776149,-0.43136462667685826,0.43136462667685826,0.9021776758776149,73.92948918226276,217.30204857641968)" fill="none" stroke="#8a46ff"></use><use xlink:href="#bbburst-shape-2" width="35.20353551678072" opacity="0.178873294575282" transform="matrix(0.9542484499715664,-0.29901487542739874,0.29901487542739874,0.9542484499715664,530.1826006855417,279.4531798079949)" fill="#ffa6d5"></use><use xlink:href="#bbburst-shape-9" width="52.18931150948656" opacity="-0.08645305085588806" transform="matrix(0.9178862220853246,0.3968436509583218,-0.3968436509583218,0.9178862220853246,178.23863186040228,356.5347350789954)" fill="none" stroke="#ffa6d5"></use><use xlink:href="#bbburst-shape-7" width="20.269242720725806" opacity="0.7970281458746651" transform="matrix(0.9965270120157282,0.08327012863569093,-0.08327012863569093,0.9965270120157282,364.6882830233778,-69.65487829998358)" fill="#ffa6d5"></use><use xlink:href="#bbburst-shape-6" width="21.416364057204913" opacity="0.7247205498781074" transform="matrix(0.9822864224252014,-0.1873856566525275,0.1873856566525275,0.9822864224252014,373.4008399186537,118.083536477954)" fill="#8a46ff"></use><use xlink:href="#bbburst-shape-6" width="30.840456304264873" opacity="0.3026352677128141" transform="matrix(0.7790017488809937,-0.6270217502131431,0.6270217502131431,0.7790017488809937,437.8373413630945,8.157670646162615)" fill="#8a46ff"></use><use xlink:href="#bbburst-shape-11" width="20.323963101547267" opacity="0.79109607791093" transform="matrix(0.8526738282151877,0.5224436263147025,-0.5224436263147025,0.8526738282151877,536.2825532779224,122.09951042359029)" fill="none" stroke="#ffa6d5"></use><use xlink:href="#bbburst-shape-6" width="21.066837284717423" opacity="0.7098143884155708" transform="matrix(0.9545137725161473,-0.2981668292701129,0.2981668292701129,0.9545137725161473,163.23574974839187,95.55126628448096)" fill="#9a60ff"></use><use xlink:href="#bbburst-shape-10" width="36.22041406060483" opacity="0.3265105594126617" transform="matrix(0.9995940147017752,0.028492205467236,-0.028492205467236,0.9995940147017752,574.8071589974854,242.34901212861558)" fill="none" stroke="#9a60ff"></use><use xlink:href="#bbburst-shape-8" width="37.72564621248475" opacity="0.343608293013419" transform="matrix(0.9212890579546237,0.38887847933908865,-0.38887847933908865,0.9212890579546237,455.4184430599123,307.69581419504425)" fill="none" stroke="#8a46ff"></use><use xlink:href="#bbburst-shape-11" width="29.270864363487732" opacity="0.5422983818744115" transform="matrix(0.9957372214164327,-0.09223549146549849,0.09223549146549849,0.9957372214164327,419.5831663486626,-190.63061419570408)" fill="none" stroke="#ffa6d5"></use><use xlink:href="#bbburst-shape-12" width="12.936326397537075" opacity="0.8247889794993809" transform="matrix(0.9440859777311357,0.329699357978516,-0.329699357978516,0.9440859777311357,569.0434030654652,86.12670862861904)" fill="none" stroke="#8a46ff"></use><use xlink:href="#bbburst-shape-2" width="32.10219054667606" opacity="0.14517902115242376" transform="matrix(0.9958724370453422,-0.09076391977746891,0.09076391977746891,0.9958724370453422,219.06617597724028,365.6444404503289)" fill="#8a46ff"></use><use xlink:href="#bbburst-shape-10" width="28.439663628766613" opacity="0.16378796974080512" transform="matrix(0.9865458455650227,-0.16348484516429765,0.16348484516429765,0.9865458455650227,683.3456637092224,107.69398003531904)" fill="none" stroke="#ffa6d5"></use><use xlink:href="#bbburst-shape-3" width="46.45117483918346" opacity="0.07613579674201143" transform="matrix(0.9943689027579151,0.10597398373195169,-0.10597398373195169,0.9943689027579151,639.049255384998,352.57438451763375)" fill="#ffa6d5"></use><use xlink:href="#bbburst-shape-2" width="26.30869741411673" opacity="0.5887938710724854" transform="matrix(0.9848735826901132,-0.1732744243076308,0.1732744243076308,0.9848735826901132,166.9581228295474,115.61132041666593)" fill="#8a46ff"></use><use xlink:href="#bbburst-shape-1" width="30.868903028731587" opacity="0.5066922220513828" transform="matrix(0.9025341986680455,-0.43061818381790273,0.43061818381790273,0.9025341986680455,203.55856900920463,267.4188693757422)" fill="#8a46ff"></use><use xlink:href="#bbburst-shape-3" width="17.428791720488743" opacity="0.7533098025276599" transform="matrix(0.9899994188846457,0.14107143795986432,-0.14107143795986432,0.9899994188846457,411.264264922888,107.60996800611156)" fill="#9a60ff"></use><use xlink:href="#bbburst-shape-10" width="25.778802478382723" opacity="0.33483130515704895" transform="matrix(0.9323575545158849,-0.3615375368300762,0.3615375368300762,0.9323575545158849,40.2632328421829,251.5912084843411)" fill="none" stroke="#9a60ff"></use><use xlink:href="#bbburst-shape-12" width="27.41162098803617" opacity="0.7218476530749525" transform="matrix(0.9905865553300992,0.13688782414535053,-0.13688782414535053,0.9905865553300992,402.4583501618677,-117.1868892398121)" fill="none" stroke="#8a46ff"></use><use xlink:href="#bbburst-shape-6" width="15.85935777562424" opacity="0.8886477246098188" transform="matrix(0.8163803105373268,0.5775146652397477,-0.5775146652397477,0.8163803105373268,586.7913702162948,35.90639551247881)" fill="#2c2891"></use><use xlink:href="#bbburst-shape-1" width="48.52210051544084" opacity="0.18741275340733898" transform="matrix(0.8176933021218773,0.5756541180822216,-0.5756541180822216,0.8176933021218773,891.5456671277434,-174.78794385617334)" fill="#2c2891"></use><use xlink:href="#bbburst-shape-6" width="28.138808668976257" opacity="0.6676320285127155" transform="matrix(0.7442628493691951,0.6678868250301446,-0.6678868250301446,0.7442628493691951,558.4324764712444,-19.869852632151947)" fill="#9a60ff"></use><use xlink:href="#bbburst-shape-5" width="21.227941325725823" opacity="0.6300874768277072" transform="matrix(0.9256802831899875,-0.37830677143464464,0.37830677143464464,0.9256802831899875,77.27345920622582,73.76151420979687)" fill="#8a46ff"></use><use xlink:href="#bbburst-shape-14" width="11.598481357014485" opacity="0.8738229753493687" transform="matrix(0.7350831091760702,0.6779770074302237,-0.6779770074302237,0.7350831091760702,612.7353513772027,119.02450357703032)" fill="none" stroke="#8a46ff"></use><use xlink:href="#bbburst-shape-11" width="16.946707410343393" opacity="0.73822720232929" transform="matrix(0.880761556911388,0.47356000661693115,-0.47356000661693115,0.880761556911388,479.9393740386553,-15.218950818777557)" fill="none" stroke="#8a46ff"></use><use xlink:href="#bbburst-shape-14" width="39.347951201697484" opacity="0.331156857905189" transform="matrix(0.824422131540746,-0.5659753961311507,0.5659753961311507,0.824422131540746,-140.55726461043508,39.007103534072144)" fill="none" stroke="#8a46ff"></use><use xlink:href="#bbburst-shape-5" width="25.11552900823599" opacity="0.5280880200705573" transform="matrix(0.9186786496762495,0.3950057450582497,-0.3950057450582497,0.9186786496762495,736.8917906352237,121.56210907421405)" fill="#ffa6d5"></use><use xlink:href="#bbburst-shape-8" width="29.867810365194664" opacity="0.20585081087412493" transform="matrix(0.7547374720901396,-0.6560269416898864,0.6560269416898864,0.7547374720901396,108.0219565377584,-248.9964242634266)" fill="none" stroke="#8a46ff"></use><use xlink:href="#bbburst-shape-8" width="29.95523778857229" opacity="0.38184886448314637" transform="matrix(0.8633993847304313,0.5045210624415126,-0.5045210624415126,0.8633993847304313,337.72349181496304,-72.49666324920929)" fill="none" stroke="#ffa6d5"></use><use xlink:href="#bbburst-shape-2" width="38.920195517832475" opacity="-0.06495226767170292" transform="matrix(0.9954864524706303,0.09490375623461636,-0.09490375623461636,0.9954864524706303,765.7207393952175,-330.41318567437315)" fill="#8a46ff"></use><use xlink:href="#bbburst-shape-11" width="13.87966068667728" opacity="0.9358291820319141" transform="matrix(0.9186728604349405,-0.39501920902695925,0.39501920902695925,0.9186728604349405,206.67248521349816,34.68185489849361)" fill="none" stroke="#8a46ff"></use><use xlink:href="#bbburst-shape-6" width="17.677236707754265" opacity="0.7746716165532213" transform="matrix(0.9640884819437304,0.26558124742427397,-0.26558124742427397,0.9640884819437304,579.4699274821194,71.99265626501807)" fill="#ffa6d5"></use><use xlink:href="#bbburst-shape-14" width="18.28465821024228" opacity="0.7661762102502447" transform="matrix(0.8011597046154191,0.5984506058987111,-0.5984506058987111,0.8011597046154191,712.271228278591,6.00747779932243)" fill="none" stroke="#8a46ff"></use><use xlink:href="#bbburst-shape-11" width="33.13765238759187" opacity="0.1107374030041125" transform="matrix(0.9996915472580988,-0.02483566670553323,0.02483566670553323,0.9996915472580988,733.7439977525688,-174.11205777487888)" fill="none" stroke="#ffa6d5"></use><use xlink:href="#bbburst-shape-3" width="23.941466379622945" opacity="0.6300440987135438" transform="matrix(0.8651883086670275,0.5014470964577303,-0.5014470964577303,0.8651883086670275,551.9642347013864,209.91947619264846)" fill="#ffa6d5"></use><use xlink:href="#bbburst-shape-13" width="39.39467366534073" opacity="0.2505417121212471" transform="matrix(0.8935667873972724,-0.4489302801777998,0.4489302801777998,0.8935667873972724,103.34230631363104,-270.83320143372305)" fill="none" stroke="#9a60ff"></use><use xlink:href="#bbburst-shape-9" width="29.97570715706418" opacity="0.2752122578424515" transform="matrix(0.9685908677156527,0.24865987005916138,-0.24865987005916138,0.9685908677156527,612.4487123558664,308.8623779021875)" fill="none" stroke="#ffa6d5"></use><use xlink:href="#bbburst-shape-2" width="15.08514890755145" opacity="0.846994698218609" transform="matrix(0.9949923734215714,-0.09995087209678695,0.09995087209678695,0.9949923734215714,417.2230138213614,-20.764328333905496)" fill="#ffa6d5"></use><use xlink:href="#bbburst-shape-10" width="22.89963105660824" opacity="0.7029644179419687" transform="matrix(0.9771146359904234,-0.2127133943438973,0.2127133943438973,0.9771146359904234,312.27816535973767,144.98186816639827)" fill="none" stroke="#2c2891"></use><use xlink:href="#bbburst-shape-13" width="33.051669604874576" opacity="0.5720735170772913" transform="matrix(0.9862277746713863,0.1653927944824839,-0.1653927944824839,0.9862277746713863,372.99238561459913,-173.78472949466354)" fill="none" stroke="#9a60ff"></use><use xlink:href="#bbburst-shape-9" width="22.312464708997037" opacity="0.6012196838597821" transform="matrix(0.9814949591202276,0.19148797670241063,-0.19148797670241063,0.9814949591202276,507.7046837075786,179.57770261996876)" fill="none" stroke="#2c2891"></use><use xlink:href="#bbburst-shape-14" width="46.35222273129559" opacity="0.0628074659148532" transform="matrix(0.7393381347625978,-0.6733343318781264,0.6733343318781264,0.7393381347625978,-238.00206146354185,-113.01379894155147)" fill="none" stroke="#2c2891"></use><use xlink:href="#bbburst-shape-6" width="14.458528496142506" opacity="0.8948241063015099" transform="matrix(0.8803795069559921,-0.4742698849093461,0.4742698849093461,0.8803795069559921,235.48454711070383,16.003594355657583)" fill="#ffa6d5"></use><use xlink:href="#bbburst-shape-10" width="33.63186034345669" opacity="0.40071544012638827" transform="matrix(0.8721471663611856,-0.4892436205083869,0.4892436205083869,0.8721471663611856,414.73856128133843,-89.14218921744288)" fill="none" stroke="#ffa6d5"></use><use xlink:href="#bbburst-shape-3" width="14.795300485438206" opacity="0.829954650527144" transform="matrix(0.9837102514171763,-0.17976134527966747,0.17976134527966747,0.9837102514171763,353.0004987157239,-61.54227484779642)" fill="#8a46ff"></use><use xlink:href="#bbburst-shape-9" width="15.903467469612051" opacity="0.7992558522697317" transform="matrix(0.7995437433738268,0.6006078607808659,-0.6006078607808659,0.7995437433738268,645.7494858502171,164.88180340868445)" fill="none" stroke="#ffa6d5"></use><use xlink:href="#bbburst-shape-14" width="9.589349639250866" opacity="0.9370351063487918" transform="matrix(0.9652579313043503,0.2612989208819011,-0.2612989208819011,0.9652579313043503,492.4179219665287,39.98822250169343)" fill="none" stroke="#8a46ff"></use><use xlink:href="#bbburst-shape-3" width="19.961110582974616" opacity="0.6913581304121297" transform="matrix(0.8335459817009803,-0.5524500849761443,0.5524500849761443,0.8335459817009803,304.14491754888604,110.42326133736373)" fill="#2c2891"></use><use xlink:href="#bbburst-shape-14" width="34.62613363885484" opacity="0.34075174370034567" transform="matrix(0.9369231435981253,0.3495354388187365,-0.3495354388187365,0.9369231435981253,300.2993503759325,-176.11086508530377)" fill="none" stroke="#8a46ff"></use><use xlink:href="#bbburst-shape-3" width="14.304003240383498" opacity="0.8226343046339875" transform="matrix(0.9950235795319069,-0.09963973191207842,0.09963973191207842,0.9950235795319069,430.473563527867,21.78964843517946)" fill="#ffa6d5"></use><use xlink:href="#bbburst-shape-14" width="47.78731315203628" opacity="-0.0731218298517522" transform="matrix(0.9033423807778693,-0.4289202059714265,0.4289202059714265,0.9033423807778693,-128.74769083267566,-298.23925547450006)" fill="none" stroke="#9a60ff"></use><use xlink:href="#bbburst-shape-11" width="40.16168958329834" opacity="0.057715814108012076" transform="matrix(0.7503428473161894,0.6610488722336902,-0.6610488722336902,0.7503428473161894,1006.7161813928967,314.9683580061558)" fill="none" stroke="#ffa6d5"></use><use xlink:href="#bbburst-shape-4" width="11.781266786072406" opacity="0.8792517433313696" transform="matrix(0.9964379137611509,-0.08432961531588545,0.08432961531588545,0.9964379137611509,324.0525962692639,42.32272697858315)" fill="#ffa6d5"></use><use xlink:href="#bbburst-shape-13" width="27.5783631602168" opacity="0.6232380539334054" transform="matrix(0.9643001087648597,-0.2648118204236356,0.2648118204236356,0.9643001087648597,284.1986911816441,-151.5768718032946)" fill="none" stroke="#ffa6d5"></use><use xlink:href="#bbburst-shape-12" width="26.312470799382233" opacity="0.35783706510502844" transform="matrix(0.9612165179181189,0.27579486159347977,-0.27579486159347977,0.9612165179181189,522.6273748285354,299.73400481256687)" fill="none" stroke="#2c2891"></use><use xlink:href="#bbburst-shape-5" width="37.37384768995688" opacity="0.3720386148428112" transform="matrix(0.9964564052027101,0.0841108347984515,-0.0841108347984515,0.9964564052027101,473.9127186226324,-276.5327273967004)" fill="#9a60ff"></use><use xlink:href="#bbburst-shape-10" width="11.112764444137964" opacity="0.9314884629059037" transform="matrix(0.7575148060309103,0.6528179827823007,-0.6528179827823007,0.7575148060309103,654.8961610664938,62.60294460741761)" fill="none" stroke="#8a46ff"></use><use xlink:href="#bbburst-shape-3" width="28.341204797508738" opacity="0.4964920719593867" transform="matrix(0.7412626635163295,0.6712150651443074,-0.6712150651443074,0.7412626635163295,808.0434394243944,263.60260738932857)" fill="#ffa6d5"></use><use xlink:href="#bbburst-shape-8" width="19.50291525005312" opacity="0.7343413668375405" transform="matrix(0.9879554600750594,0.15473851785472692,-0.15473851785472692,0.9879554600750594,335.95539737386594,30.95395739634546)" fill="none" stroke="#9a60ff"></use><use xlink:href="#bbburst-shape-13" width="23.933242520507775" opacity="0.6149428133977376" transform="matrix(0.8759849947977097,0.4823383551919299,-0.4823383551919299,0.8759849947977097,428.03376611590056,-34.774142737924365)" fill="none" stroke="#9a60ff"></use><use xlink:href="#bbburst-shape-6" width="36.196298701495934" opacity="0.2835484386084871" transform="matrix(0.8825863958021012,0.47015024613952583,-0.47015024613952583,0.8825863958021012,285.18021942329597,185.52320931351932)" fill="#8a46ff"></use><use xlink:href="#bbburst-shape-10" width="26.31414797922824" opacity="0.4864067840389902" transform="matrix(0.9812449328752391,-0.19276509462728872,0.19276509462728872,0.9812449328752391,91.05888764175047,84.11240732622429)" fill="none" stroke="#9a60ff"></use><use xlink:href="#bbburst-shape-4" width="22.54914439172653" opacity="0.6516620139041821" transform="matrix(0.9732943255549575,0.22956078899176227,-0.22956078899176227,0.9732943255549575,393.26690965384637,138.11822765382328)" fill="#8a46ff"></use><use xlink:href="#bbburst-shape-4" width="32.35137701537022" opacity="0.5716371667931202" transform="matrix(0.7872131470664421,-0.6166810043172631,0.6166810043172631,0.7872131470664421,282.8430095240047,-34.99452998571951)" fill="#ffa6d5"></use><use xlink:href="#bbburst-shape-8" width="13.100031482744653" opacity="0.9876376654987822" transform="matrix(0.9463925093100402,-0.32301891325717363,0.32301891325717363,0.9463925093100402,269.6539946545307,25.869520228540466)" fill="none" stroke="#ffa6d5"></use><use xlink:href="#bbburst-shape-2" width="21.293604385656852" opacity="0.48628652364113567" transform="matrix(0.9856564791548819,-0.16876405156312768,0.16876405156312768,0.9856564791548819,230.42778070223292,219.80453617816738)" fill="#9a60ff"></use><use xlink:href="#bbburst-shape-3" width="17.312905018428157" opacity="0.7555293275792837" transform="matrix(0.8964052128050842,-0.4432354842021018,0.4432354842021018,0.8964052128050842,229.49721784279984,-63.73325969533164)" fill="#8a46ff"></use><use xlink:href="#bbburst-shape-12" width="32.79058178328353" opacity="0.17258474269403512" transform="matrix(0.8779480096218463,0.4787559841934495,-0.4787559841934495,0.8779480096218463,327.31163205841096,-235.16446889237915)" fill="none" stroke="#ffa6d5"></use><use xlink:href="#bbburst-shape-13" width="30.952120418461003" opacity="0.11242663095386274" transform="matrix(0.7255803874640786,0.6881374145673794,-0.6881374145673794,0.7255803874640786,296.1977233542618,254.77562281943898)" fill="none" stroke="#9a60ff"></use><use xlink:href="#bbburst-shape-13" width="29.6200299550785" opacity="0.4250371180388395" transform="matrix(0.7847632390308721,-0.6197956587987482,0.6197956587987482,0.7847632390308721,291.2604081109238,-114.96877399750363)" fill="none" stroke="#9a60ff"></use><use xlink:href="#bbburst-shape-3" width="31.609449191000053" opacity="0.424966509219702" transform="matrix(0.8178420635793776,0.5754427504454507,-0.5754427504454507,0.8178420635793776,400.6082959068831,205.36023230604786)" fill="#ffa6d5"></use><use xlink:href="#bbburst-shape-11" width="19.252176880256126" opacity="0.6107336274068222" transform="matrix(0.983555808601585,0.18060446109130948,-0.18060446109130948,0.983555808601585,559.8250732286838,150.45214010960046)" fill="none" stroke="#8a46ff"></use><use xlink:href="#bbburst-shape-5" width="22.088226861964028" opacity="0.655218462686577" transform="matrix(0.9543064819462405,0.2988296145220379,-0.2988296145220379,0.9543064819462405,647.6448775139012,-54.64713912078582)" fill="#8a46ff"></use><use xlink:href="#bbburst-shape-11" width="19.29750285846935" opacity="0.8440090839615623" transform="matrix(0.7680230067450942,-0.6404222521978956,0.6404222521978956,0.7680230067450942,121.67229793066844,30.11596070114848)" fill="none" stroke="#9a60ff"></use><use xlink:href="#bbburst-shape-10" width="32.226301299348414" opacity="0.17593213994285617" transform="matrix(0.9507032332425192,0.31010218042158316,-0.31010218042158316,0.9507032332425192,139.0323960852441,-14.344284151018655)" fill="none" stroke="#8a46ff"></use><use xlink:href="#bbburst-shape-6" width="20.522564855771474" opacity="0.6590153814085042" transform="matrix(0.886734903720391,0.4622782825571507,-0.4622782825571507,0.886734903720391,697.7672140416248,133.68485183508568)" fill="#ffa6d5"></use><use xlink:href="#bbburst-shape-2" width="33.261650940111025" opacity="0.22687118389812488" transform="matrix(0.9251608329312168,0.37957533272068295,-0.37957533272068295,0.9251608329312168,350.0016241552174,317.3758129660856)" fill="#ffa6d5"></use><use xlink:href="#bbburst-shape-8" width="37.3504375256496" opacity="0.17722407159071063" transform="matrix(0.9890188068445654,-0.1477897144856573,0.1477897144856573,0.9890188068445654,424.5878329164917,-348.7196212436183)" fill="none" stroke="#8a46ff"></use><use xlink:href="#bbburst-shape-5" width="39.163894369153574" opacity="0.45061921499700264" transform="matrix(0.8337909703611893,-0.5520802638603796,0.5520802638603796,0.8337909703611893,135.52012009275396,-168.4126959010768)" fill="#8a46ff"></use><use xlink:href="#bbburst-shape-10" width="28.738001982433342" opacity="0.19658021104236423" transform="matrix(0.9025436615427704,-0.4305983499840299,0.4305983499840299,0.9025436615427704,575.6384125113295,22.803456692719976)" fill="none" stroke="#8a46ff"></use><use xlink:href="#bbburst-shape-13" width="29.6952401464647" opacity="0.49740552362048296" transform="matrix(0.9922645692812836,-0.12414114768693223,0.12414114768693223,0.9922645692812836,555.5503186782116,-47.77268092505631)" fill="none" stroke="#ffa6d5"></use><use xlink:href="#bbburst-shape-11" width="23.924142815593175" opacity="0.6134764027978994" transform="matrix(0.8710399125543027,0.4912122461191219,-0.4912122461191219,0.8710399125543027,413.07321810578446,28.86072528331283)" fill="none" stroke="#8a46ff"></use><use xlink:href="#bbburst-shape-11" width="15.506233330261622" opacity="0.8921693606165075" transform="matrix(0.8408763080283115,0.5412273409544979,-0.5412273409544979,0.8408763080283115,650.5700108624292,86.02645959985517)" fill="none" stroke="#ffa6d5"></use><use xlink:href="#bbburst-shape-14" width="37.51835102661613" opacity="0.1844861950849661" transform="matrix(0.9906279199232311,0.13658815566721955,-0.13658815566721955,0.9906279199232311,96.43357066636862,-137.8291124993699)" fill="none" stroke="#2c2891"></use><use xlink:href="#bbburst-shape-5" width="26.124183015301583" opacity="0.46107805470384955" transform="matrix(0.7293224442527972,-0.6841701340376716,0.6841701340376716,0.7293224442527972,203.08452745790197,343.8558800824338)" fill="#9a60ff"></use><use xlink:href="#bbburst-shape-2" width="38.62381939625444" opacity="0.05727003800441355" transform="matrix(0.9780153534730464,0.20853289517721682,-0.20853289517721682,0.9780153534730464,696.1217734195922,-350.6453293468323)" fill="#ffa6d5"></use><use xlink:href="#bbburst-shape-11" width="11.613980130237264" opacity="0.8917420676285416" transform="matrix(0.9960488913649136,0.08880656513302734,-0.08880656513302734,0.9960488913649136,444.54699260362327,47.33074061352147)" fill="none" stroke="#ffa6d5"></use><use xlink:href="#bbburst-shape-11" width="12.192552718792356" opacity="0.9230049712819375" transform="matrix(0.962345582128925,0.2718289545963429,-0.2718289545963429,0.962345582128925,537.3966815345575,9.941783260613875)" fill="none" stroke="#2c2891"></use><use xlink:href="#bbburst-shape-8" width="52.97963951083999" opacity="-0.0801364901279007" transform="matrix(0.9006083563848749,0.4346315547791419,-0.4346315547791419,0.9006083563848749,891.4016911114591,374.2168272207682)" fill="none" stroke="#ffa6d5"></use><use xlink:href="#bbburst-shape-14" width="21.526509610450237" opacity="0.4991882432707352" transform="matrix(0.9937384597790936,0.11173125594870437,-0.11173125594870437,0.9937384597790936,217.18578705111526,-60.18309105838)" fill="none" stroke="#2c2891"></use><use xlink:href="#bbburst-shape-12" width="32.70670393673165" opacity="0.030054748797169073" transform="matrix(0.9916059237055176,0.1292969143952292,-0.1292969143952292,0.9916059237055176,181.2655125609063,355.966495217834)" fill="none" stroke="#2c2891"></use><use xlink:href="#bbburst-shape-6" width="15.632941778463689" opacity="0.830869076492853" transform="matrix(0.936172858764476,0.3515400098320936,-0.3515400098320936,0.936172858764476,460.1298743784907,1.8324557194554245)" fill="#8a46ff"></use><use xlink:href="#bbburst-shape-12" width="44.701563004381434" opacity="0.3711673335989053" transform="matrix(0.8549252995894695,-0.5187511273451422,0.5187511273451422,0.8549252995894695,454.2191569795375,104.00457626025775)" fill="none" stroke="#8a46ff"></use><use xlink:href="#bbburst-shape-13" width="37.42734605310457" opacity="0.0990225531607355" transform="matrix(0.884138656257047,0.46722461034494245,-0.46722461034494245,0.884138656257047,377.83036227933223,-319.21797674583854)" fill="none" stroke="#9a60ff"></use><use xlink:href="#bbburst-shape-2" width="27.533652212608764" opacity="0.2740100255688348" transform="matrix(0.9261962534245476,-0.37704177506256675,0.37704177506256675,0.9261962534245476,530.6428095529423,176.75777965892763)" fill="#2c2891"></use><use xlink:href="#bbburst-shape-11" width="34.028833979486045" opacity="0.38821460030984023" transform="matrix(0.9679110522617445,-0.2512930458838101,0.2512930458838101,0.9679110522617445,146.20441075042953,-222.28012548295368)" fill="none" stroke="#8a46ff"></use><use xlink:href="#bbburst-shape-5" width="22.66236894249446" opacity="0.6474821423262302" transform="matrix(0.9779897827765212,0.20865278523118969,-0.20865278523118969,0.9779897827765212,630.279014846702,-8.795861364144116)" fill="#8a46ff"></use><use xlink:href="#bbburst-shape-2" width="26.317214727571802" opacity="0.4660899222428898" transform="matrix(0.9838116916539285,-0.1792053441307921,0.1792053441307921,0.9838116916539285,75.4289277795826,21.122164734610976)" fill="#2c2891"></use><use xlink:href="#bbburst-shape-1" width="27.486740395843857" opacity="0.20059837136837078" transform="matrix(0.9109293136699161,-0.41256246253974144,0.41256246253974144,0.9109293136699161,203.73799712119788,400.5732108517459)" fill="#8a46ff"></use><use xlink:href="#bbburst-shape-3" width="31.194405763735272" opacity="0.2606580147710136" transform="matrix(0.9999392985890677,0.011018127663232674,-0.011018127663232674,0.9999392985890677,61.16850323668353,58.334255805723956)" fill="#ffa6d5"></use><use xlink:href="#bbburst-shape-5" width="24.307698094571307" opacity="0.5406286662350916" transform="matrix(0.7780076192121343,0.6282548403696279,-0.6282548403696279,0.7780076192121343,846.4830763557363,110.41337060879783)" fill="#ffa6d5"></use><use xlink:href="#bbburst-shape-3" width="41.088104167985975" opacity="0.12169375372428004" transform="matrix(0.7775009265179982,0.6288817927589051,-0.6288817927589051,0.7775009265179982,325.62234276853576,321.3685453681715)" fill="#ffa6d5"></use><use xlink:href="#bbburst-shape-10" width="39.20461937515117" opacity="0.256832460631529" transform="matrix(0.7463203773583913,0.6655868796330261,-0.6655868796330261,0.7463203773583913,834.3677741436542,-191.64333480034963)" fill="none" stroke="#8a46ff"></use><use xlink:href="#bbburst-shape-4" width="26.44996281739376" opacity="0.5209629628388647" transform="matrix(0.9997176706840101,-0.023760869557680083,0.023760869557680083,0.9997176706840101,218.60623566231567,-145.47084441685485)" fill="#ffa6d5"></use><use xlink:href="#bbburst-shape-9" width="20.37201681873622" opacity="0.764010913560697" transform="matrix(0.9901879828357757,0.13974175699345423,-0.13974175699345423,0.9901879828357757,550.8665539964678,-13.277037730102563)" fill="none" stroke="#ffa6d5"></use><use xlink:href="#bbburst-shape-9" width="15.636443850403017" opacity="0.7274745987588696" transform="matrix(0.8186347183030398,-0.5743145462104391,0.5743145462104391,0.8186347183030398,42.477428842270115,59.13773435540861)" fill="none" stroke="#ffa6d5"></use><use xlink:href="#bbburst-shape-11" width="16.136449301006525" opacity="0.8489739680227474" transform="matrix(0.9951103257634605,0.098769628727355,-0.098769628727355,0.9951103257634605,414.2825585718923,66.6967706172864)" fill="none" stroke="#9a60ff"></use><use xlink:href="#bbburst-shape-10" width="30.418159439597105" opacity="0.16214282441903283" transform="matrix(0.9812530787696404,-0.19272362440837906,0.19272362440837906,0.9812530787696404,401.0754563057888,375.79330343953427)" fill="none" stroke="#8a46ff"></use><use xlink:href="#bbburst-shape-9" width="14.243740730612615" opacity="0.8101970312388371" transform="matrix(0.9389106163482961,-0.344161088021965,0.344161088021965,0.9389106163482961,173.1003943058056,48.849182907996635)" fill="none" stroke="#ffa6d5"></use></svg>