<svg xmlns="http://www.w3.org/2000/svg" version="1.1" xmlns:xlink="http://www.w3.org/1999/xlink" xmlns:svgjs="http://svgjs.dev/svgjs" viewBox="0 0 800 800"><defs><linearGradient x1="50%" y1="0%" x2="50%" y2="100%" id="ffflurry-grad" gradientTransform="rotate(270)"><stop stop-color="rgb(0, 0, 0)" stop-opacity="1" offset="0%"></stop><stop stop-color="hsl(265, 55%, 30%)" stop-opacity="1" offset="45%"></stop><stop stop-color="hsl(265, 55%, 60%)" stop-opacity="1" offset="100%"></stop></linearGradient></defs><rect width="100%" height="100%" fill="#000000"></rect><g fill="url(#ffflurry-grad)"><rect width="835" height="3" x="11.5" y="561.5" rx="1.5" transform="rotate(90, 429, 563)" opacity="0.88"></rect><rect width="736" height="3" x="345" y="167.5" rx="1.5" transform="rotate(90, 713, 169)" opacity="0.91"></rect><rect width="250" height="3" x="-40" y="328.5" rx="1.5" transform="rotate(90, 85, 330)" opacity="0.19"></rect><rect width="262" height="3" x="498" y="284.5" rx="1.5" transform="rotate(90, 629, 286)" opacity="0.36"></rect><rect width="749" height="3" x="-33.5" y="732.5" rx="1.5" transform="rotate(90, 341, 734)" opacity="0.71"></rect><rect width="120" height="3" x="156" y="615.5" rx="1.5" transform="rotate(90, 216, 617)" opacity="0.22"></rect><rect width="179" height="3" x="649.5" y="265.5" rx="1.5" transform="rotate(90, 739, 267)" opacity="0.48"></rect><rect width="585" height="3" x="19.5" y="173.5" rx="1.5" transform="rotate(90, 312, 175)" opacity="0.31"></rect><rect width="175" height="3" x="165.5" y="275.5" rx="1.5" transform="rotate(90, 253, 277)" opacity="0.56"></rect><rect width="252" height="3" x="154" y="373.5" rx="1.5" transform="rotate(90, 280, 375)" opacity="0.51"></rect><rect width="673" height="3" x="-167.5" y="754.5" rx="1.5" transform="rotate(90, 169, 756)" opacity="0.78"></rect><rect width="554" height="3" x="256" y="698.5" rx="1.5" transform="rotate(90, 533, 700)" opacity="0.39"></rect><rect width="124" height="3" x="-19" y="35.5" rx="1.5" transform="rotate(90, 43, 37)" opacity="0.27"></rect><rect width="381" height="3" x="489.5" y="756.5" rx="1.5" transform="rotate(90, 680, 758)" opacity="0.88"></rect><rect width="379" height="3" x="132.5" y="488.5" rx="1.5" transform="rotate(90, 322, 490)" opacity="0.60"></rect><rect width="591" height="3" x="121.5" y="677.5" rx="1.5" transform="rotate(90, 417, 679)" opacity="0.57"></rect><rect width="89" height="3" x="568.5" y="721.5" rx="1.5" transform="rotate(90, 613, 723)" opacity="0.25"></rect><rect width="349" height="3" x="-42.5" y="483.5" rx="1.5" transform="rotate(90, 132, 485)" opacity="0.49"></rect><rect width="821" height="3" x="168.5" y="193.5" rx="1.5" transform="rotate(90, 579, 195)" opacity="0.81"></rect><rect width="384" height="3" x="11" y="85.5" rx="1.5" transform="rotate(90, 203, 87)" opacity="0.80"></rect><rect width="616" height="3" x="81" y="51.5" rx="1.5" transform="rotate(90, 389, 53)" opacity="0.54"></rect><rect width="257" height="3" x="507.5" y="651.5" rx="1.5" transform="rotate(90, 636, 653)" opacity="0.53"></rect><rect width="647" height="3" x="159.5" y="238.5" rx="1.5" transform="rotate(90, 483, 240)" opacity="0.68"></rect><rect width="95" height="3" x="49.5" y="631.5" rx="1.5" transform="rotate(90, 97, 633)" opacity="0.76"></rect><rect width="561" height="3" x="242.5" y="318.5" rx="1.5" transform="rotate(90, 523, 320)" opacity="0.91"></rect><rect width="485" height="3" x="205.5" y="753.5" rx="1.5" transform="rotate(90, 448, 755)" opacity="0.21"></rect><rect width="150" height="3" x="78" y="34.5" rx="1.5" transform="rotate(90, 153, 36)" opacity="0.86"></rect><rect width="609" height="3" x="-162.5" y="559.5" rx="1.5" transform="rotate(90, 142, 561)" opacity="0.46"></rect><rect width="600" height="3" x="-65" y="513.5" rx="1.5" transform="rotate(90, 235, 515)" opacity="0.58"></rect><rect width="270" height="3" x="332" y="110.5" rx="1.5" transform="rotate(90, 467, 112)" opacity="0.93"></rect><rect width="309" height="3" x="260.5" y="455.5" rx="1.5" transform="rotate(90, 415, 457)" opacity="0.20"></rect><rect width="185" height="3" x="490.5" y="647.5" rx="1.5" transform="rotate(90, 583, 649)" opacity="0.54"></rect><rect width="300" height="3" x="-77" y="590.5" rx="1.5" transform="rotate(90, 73, 592)" opacity="0.74"></rect><rect width="618" height="3" x="452" y="731.5" rx="1.5" transform="rotate(90, 761, 733)" opacity="0.59"></rect><rect width="310" height="3" x="-30" y="171.5" rx="1.5" transform="rotate(90, 125, 173)" opacity="0.94"></rect><rect width="261" height="3" x="611.5" y="59.5" rx="1.5" transform="rotate(90, 742, 61)" opacity="0.55"></rect><rect width="305" height="3" x="253.5" y="211.5" rx="1.5" transform="rotate(90, 406, 213)" opacity="0.18"></rect><rect width="404" height="3" x="54" y="732.5" rx="1.5" transform="rotate(90, 256, 734)" opacity="0.55"></rect><rect width="272" height="3" x="-36" y="19.5" rx="1.5" transform="rotate(90, 100, 21)" opacity="0.86"></rect><rect width="455" height="3" x="-192.5" y="412.5" rx="1.5" transform="rotate(90, 35, 414)" opacity="0.70"></rect><rect width="157" height="3" x="315.5" y="362.5" rx="1.5" transform="rotate(90, 394, 364)" opacity="0.70"></rect><rect width="143" height="3" x="-34.5" y="495.5" rx="1.5" transform="rotate(90, 37, 497)" opacity="0.62"></rect><rect width="836" height="3" x="211" y="57.5" rx="1.5" transform="rotate(90, 629, 59)" opacity="0.58"></rect><rect width="518" height="3" x="-227" y="99.5" rx="1.5" transform="rotate(90, 32, 101)" opacity="0.78"></rect><rect width="197" height="3" x="404.5" y="619.5" rx="1.5" transform="rotate(90, 503, 621)" opacity="0.52"></rect><rect width="302" height="3" x="-44" y="768.5" rx="1.5" transform="rotate(90, 107, 770)" opacity="0.66"></rect><rect width="492" height="3" x="516" y="370.5" rx="1.5" transform="rotate(90, 762, 372)" opacity="0.57"></rect><rect width="311" height="3" x="377.5" y="401.5" rx="1.5" transform="rotate(90, 533, 403)" opacity="0.38"></rect><rect width="302" height="3" x="427" y="532.5" rx="1.5" transform="rotate(90, 578, 534)" opacity="0.49"></rect><rect width="507" height="3" x="-54.5" y="412.5" rx="1.5" transform="rotate(90, 199, 414)" opacity="0.23"></rect><rect width="280" height="3" x="-27" y="105.5" rx="1.5" transform="rotate(90, 113, 107)" opacity="0.69"></rect><rect width="174" height="3" x="22" y="405.5" rx="1.5" transform="rotate(90, 109, 407)" opacity="0.25"></rect><rect width="80" height="3" x="15" y="547.5" rx="1.5" transform="rotate(90, 55, 549)" opacity="0.44"></rect><rect width="150" height="3" x="-52" y="705.5" rx="1.5" transform="rotate(90, 23, 707)" opacity="0.59"></rect><rect width="186" height="3" x="-66" y="295.5" rx="1.5" transform="rotate(90, 27, 297)" opacity="0.15"></rect><rect width="264" height="3" x="-98" y="179.5" rx="1.5" transform="rotate(90, 34, 181)" opacity="0.87"></rect><rect width="61" height="3" x="298.5" y="605.5" rx="1.5" transform="rotate(90, 329, 607)" opacity="0.80"></rect><rect width="553" height="3" x="-201.5" y="689.5" rx="1.5" transform="rotate(90, 75, 691)" opacity="0.93"></rect><rect width="450" height="3" x="288" y="486.5" rx="1.5" transform="rotate(90, 513, 488)" opacity="0.11"></rect><rect width="731" height="3" x="350.5" y="479.5" rx="1.5" transform="rotate(90, 716, 481)" opacity="0.69"></rect><rect width="631" height="3" x="-117.5" y="213.5" rx="1.5" transform="rotate(90, 198, 215)" opacity="0.45"></rect><rect width="836" height="3" x="232" y="569.5" rx="1.5" transform="rotate(90, 650, 571)" opacity="0.84"></rect><rect width="359" height="3" x="-13.5" y="320.5" rx="1.5" transform="rotate(90, 166, 322)" opacity="0.62"></rect><rect width="317" height="3" x="3.5" y="679.5" rx="1.5" transform="rotate(90, 162, 681)" opacity="0.53"></rect><rect width="483" height="3" x="-145.5" y="242.5" rx="1.5" transform="rotate(90, 96, 244)" opacity="0.08"></rect><rect width="690" height="3" x="199" y="68.5" rx="1.5" transform="rotate(90, 544, 70)" opacity="0.49"></rect><rect width="356" height="3" x="578" y="585.5" rx="1.5" transform="rotate(90, 756, 587)" opacity="0.28"></rect><rect width="184" height="3" x="608" y="662.5" rx="1.5" transform="rotate(90, 700, 664)" opacity="0.37"></rect><rect width="128" height="3" x="-24" y="768.5" rx="1.5" transform="rotate(90, 40, 770)" opacity="0.49"></rect><rect width="177" height="3" x="256.5" y="282.5" rx="1.5" transform="rotate(90, 345, 284)" opacity="0.63"></rect><rect width="87" height="3" x="479.5" y="768.5" rx="1.5" transform="rotate(90, 523, 770)" opacity="0.99"></rect><rect width="196" height="3" x="556" y="391.5" rx="1.5" transform="rotate(90, 654, 393)" opacity="0.27"></rect><rect width="375" height="3" x="92.5" y="68.5" rx="1.5" transform="rotate(90, 280, 70)" opacity="0.07"></rect><rect width="167" height="3" x="511.5" y="772.5" rx="1.5" transform="rotate(90, 595, 774)" opacity="0.44"></rect><rect width="154" height="3" x="-57" y="610.5" rx="1.5" transform="rotate(90, 20, 612)" opacity="0.22"></rect></g></svg>