<svg xmlns="http://www.w3.org/2000/svg" version="1.1" xmlns:xlink="http://www.w3.org/1999/xlink" xmlns:svgjs="http://svgjs.dev/svgjs" viewBox="0 0 800 800"><defs><linearGradient x1="50%" y1="0%" x2="50%" y2="100%" id="ffflurry-grad" gradientTransform="rotate(270)"><stop stop-color="hsl(0, 0%, 3%)" stop-opacity="1" offset="0%"></stop><stop stop-color="#fe24fe" stop-opacity="1" offset="45%"></stop><stop stop-color="#41fcfd" stop-opacity="1" offset="100%"></stop></linearGradient></defs><rect width="100%" height="100%" fill="hsl(0, 0%, 3%)"></rect><g fill="url(#ffflurry-grad)"><rect width="363" height="2" x="221.5" y="139" rx="1" transform="rotate(57, 403, 140)" opacity="0.19"></rect><rect width="285" height="2" x="360.5" y="642" rx="1" transform="rotate(57, 503, 643)" opacity="0.28"></rect><rect width="231" height="2" x="334.5" y="422" rx="1" transform="rotate(57, 450, 423)" opacity="0.50"></rect><rect width="117" height="2" x="450.5" y="189" rx="1" transform="rotate(57, 509, 190)" opacity="0.21"></rect><rect width="39" height="2" x="511.5" y="102" rx="1" transform="rotate(57, 531, 103)" opacity="0.76"></rect><rect width="148" height="2" x="607" y="577" rx="1" transform="rotate(57, 681, 578)" opacity="0.76"></rect><rect width="374" height="2" x="50" y="752" rx="1" transform="rotate(57, 237, 753)" opacity="0.89"></rect><rect width="93" height="2" x="261.5" y="367" rx="1" transform="rotate(57, 308, 368)" opacity="0.92"></rect><rect width="219" height="2" x="355.5" y="183" rx="1" transform="rotate(57, 465, 184)" opacity="0.72"></rect><rect width="464" height="2" x="-71" y="668" rx="1" transform="rotate(57, 161, 669)" opacity="0.29"></rect><rect width="340" height="2" x="94" y="129" rx="1" transform="rotate(57, 264, 130)" opacity="0.22"></rect><rect width="115" height="2" x="413.5" y="550" rx="1" transform="rotate(57, 471, 551)" opacity="0.75"></rect><rect width="444" height="2" x="76" y="449" rx="1" transform="rotate(57, 298, 450)" opacity="0.45"></rect><rect width="241" height="2" x="-81.5" y="554" rx="1" transform="rotate(57, 39, 555)" opacity="0.83"></rect><rect width="414" height="2" x="441" y="223" rx="1" transform="rotate(57, 648, 224)" opacity="0.80"></rect><rect width="110" height="2" x="507" y="158" rx="1" transform="rotate(57, 562, 159)" opacity="0.09"></rect><rect width="137" height="2" x="207.5" y="606" rx="1" transform="rotate(57, 276, 607)" opacity="0.96"></rect><rect width="429" height="2" x="16.5" y="492" rx="1" transform="rotate(57, 231, 493)" opacity="0.80"></rect><rect width="63" height="2" x="261.5" y="540" rx="1" transform="rotate(57, 293, 541)" opacity="0.59"></rect><rect width="268" height="2" x="275" y="69" rx="1" transform="rotate(57, 409, 70)" opacity="0.35"></rect><rect width="324" height="2" x="173" y="213" rx="1" transform="rotate(57, 335, 214)" opacity="0.98"></rect><rect width="226" height="2" x="-63" y="68" rx="1" transform="rotate(57, 50, 69)" opacity="0.35"></rect><rect width="246" height="2" x="83" y="104" rx="1" transform="rotate(57, 206, 105)" opacity="0.57"></rect><rect width="619" height="2" x="408.5" y="407" rx="1" transform="rotate(57, 718, 408)" opacity="0.08"></rect><rect width="318" height="2" x="-47" y="590" rx="1" transform="rotate(57, 112, 591)" opacity="0.85"></rect><rect width="589" height="2" x="459.5" y="108" rx="1" transform="rotate(57, 754, 109)" opacity="0.79"></rect><rect width="247" height="2" x="386.5" y="241" rx="1" transform="rotate(57, 510, 242)" opacity="0.59"></rect><rect width="183" height="2" x="536.5" y="42" rx="1" transform="rotate(57, 628, 43)" opacity="0.95"></rect><rect width="459" height="2" x="-128.5" y="388" rx="1" transform="rotate(57, 101, 389)" opacity="0.09"></rect><rect width="204" height="2" x="625" y="37" rx="1" transform="rotate(57, 727, 38)" opacity="0.36"></rect><rect width="117" height="2" x="509.5" y="227" rx="1" transform="rotate(57, 568, 228)" opacity="0.12"></rect><rect width="356" height="2" x="-98" y="752" rx="1" transform="rotate(57, 80, 753)" opacity="0.12"></rect><rect width="175" height="2" x="185.5" y="323" rx="1" transform="rotate(57, 273, 324)" opacity="0.77"></rect><rect width="272" height="2" x="342" y="722" rx="1" transform="rotate(57, 478, 723)" opacity="0.63"></rect><rect width="242" height="2" x="381" y="69" rx="1" transform="rotate(57, 502, 70)" opacity="0.14"></rect><rect width="75" height="2" x="507.5" y="383" rx="1" transform="rotate(57, 545, 384)" opacity="0.09"></rect><rect width="199" height="2" x="647.5" y="719" rx="1" transform="rotate(57, 747, 720)" opacity="0.86"></rect><rect width="542" height="2" x="-218" y="467" rx="1" transform="rotate(57, 53, 468)" opacity="0.43"></rect><rect width="206" height="2" x="47" y="92" rx="1" transform="rotate(57, 150, 93)" opacity="0.85"></rect><rect width="384" height="2" x="414" y="688" rx="1" transform="rotate(57, 606, 689)" opacity="0.78"></rect><rect width="282" height="2" x="205" y="751" rx="1" transform="rotate(57, 346, 752)" opacity="0.65"></rect><rect width="56" height="2" x="346" y="387" rx="1" transform="rotate(57, 374, 388)" opacity="0.46"></rect><rect width="154" height="2" x="505" y="311" rx="1" transform="rotate(57, 582, 312)" opacity="0.33"></rect><rect width="395" height="2" x="-165.5" y="361" rx="1" transform="rotate(57, 32, 362)" opacity="0.34"></rect><rect width="329" height="2" x="76.5" y="656" rx="1" transform="rotate(57, 241, 657)" opacity="0.54"></rect><rect width="255" height="2" x="90.5" y="265" rx="1" transform="rotate(57, 218, 266)" opacity="0.42"></rect><rect width="281" height="2" x="103.5" y="32" rx="1" transform="rotate(57, 244, 33)" opacity="0.77"></rect><rect width="150" height="2" x="459" y="767" rx="1" transform="rotate(57, 534, 768)" opacity="0.25"></rect><rect width="88" height="2" x="5" y="656" rx="1" transform="rotate(57, 49, 657)" opacity="0.76"></rect><rect width="112" height="2" x="381" y="18" rx="1" transform="rotate(57, 437, 19)" opacity="0.42"></rect><rect width="412" height="2" x="-74" y="184" rx="1" transform="rotate(57, 132, 185)" opacity="0.12"></rect><rect width="441" height="2" x="-173.5" y="263" rx="1" transform="rotate(57, 47, 264)" opacity="0.60"></rect><rect width="601" height="2" x="441.5" y="236" rx="1" transform="rotate(57, 742, 237)" opacity="0.56"></rect><rect width="474" height="2" x="86" y="98" rx="1" transform="rotate(57, 323, 99)" opacity="0.30"></rect><rect width="320" height="2" x="249" y="718" rx="1" transform="rotate(57, 409, 719)" opacity="0.62"></rect><rect width="101" height="2" x="509.5" y="467" rx="1" transform="rotate(57, 560, 468)" opacity="0.97"></rect><rect width="318" height="2" x="504" y="762" rx="1" transform="rotate(57, 663, 763)" opacity="0.45"></rect><rect width="490" height="2" x="166" y="299" rx="1" transform="rotate(57, 411, 300)" opacity="0.88"></rect><rect width="104" height="2" x="190" y="198" rx="1" transform="rotate(57, 242, 199)" opacity="0.96"></rect><rect width="170" height="2" x="-47" y="165" rx="1" transform="rotate(57, 38, 166)" opacity="0.57"></rect><rect width="175" height="2" x="95.5" y="348" rx="1" transform="rotate(57, 183, 349)" opacity="0.22"></rect><rect width="116" height="2" x="444" y="26" rx="1" transform="rotate(57, 502, 27)" opacity="0.99"></rect><rect width="40" height="2" x="169" y="420" rx="1" transform="rotate(57, 189, 421)" opacity="0.68"></rect><rect width="47" height="2" x="319.5" y="631" rx="1" transform="rotate(57, 343, 632)" opacity="0.27"></rect><rect width="173" height="2" x="497.5" y="528" rx="1" transform="rotate(57, 584, 529)" opacity="0.52"></rect><rect width="28" height="2" x="103" y="25" rx="1" transform="rotate(57, 117, 26)" opacity="0.80"></rect><rect width="341" height="2" x="-44.5" y="286" rx="1" transform="rotate(57, 126, 287)" opacity="0.39"></rect><rect width="78" height="2" x="395" y="225" rx="1" transform="rotate(57, 434, 226)" opacity="0.38"></rect><rect width="121" height="2" x="85.5" y="486" rx="1" transform="rotate(57, 146, 487)" opacity="0.60"></rect><rect width="141" height="2" x="315.5" y="501" rx="1" transform="rotate(57, 386, 502)" opacity="0.41"></rect><rect width="204" height="2" x="308" y="609" rx="1" transform="rotate(57, 410, 610)" opacity="0.13"></rect><rect width="402" height="2" x="562" y="574" rx="1" transform="rotate(57, 763, 575)" opacity="0.67"></rect><rect width="394" height="2" x="-26" y="555" rx="1" transform="rotate(57, 171, 556)" opacity="0.08"></rect><rect width="269" height="2" x="348.5" y="139" rx="1" transform="rotate(57, 483, 140)" opacity="0.98"></rect><rect width="181" height="2" x="256.5" y="29" rx="1" transform="rotate(57, 347, 30)" opacity="0.97"></rect><rect width="98" height="2" x="565" y="111" rx="1" transform="rotate(57, 614, 112)" opacity="0.93"></rect><rect width="58" height="2" x="558" y="598" rx="1" transform="rotate(57, 587, 599)" opacity="0.56"></rect></g></svg>